<?xml version="1.0"?>
<svg xmlns="http://www.w3.org/2000/svg" height="512px" viewBox="0 -16 480.00001 480" width="512px"><path d="m128 368c-13.253906 0-24 10.746094-24 24s10.746094 24 24 24 24-10.746094 24-24-10.746094-24-24-24zm0 32c-4.417969 0-8-3.582031-8-8s3.582031-8 8-8 8 3.582031 8 8-3.582031 8-8 8zm0 0" fill="#0818cc"/><path d="m360 368c-13.253906 0-24 10.746094-24 24s10.746094 24 24 24 24-10.746094 24-24-10.746094-24-24-24zm0 32c-4.417969 0-8-3.582031-8-8s3.582031-8 8-8 8 3.582031 8 8-3.582031 8-8 8zm0 0" fill="#0818cc"/><path d="m478.542969 315.398438c-17.558594-25-59.957031-51.398438-82.472657-51.398438h-36.476562c-4.261719-71.800781-63.667969-127.882812-135.59375-128h-48c-33.085938-.042969-63.390625 18.511719-78.398438 48h-8.671874c-.515626 0-.929688-.414062-.929688-.929688l-.0625-111.070312h206.558594c8.5625 14.832031 24.378906 23.976562 41.503906 24h24c4.417969 0 8-3.582031 8-8v-16h24c4.417969 0 8-3.582031 8-8s-3.582031-8-8-8h-24v-16h24c4.417969 0 8-3.582031 8-8s-3.582031-8-8-8h-24v-16c0-4.417969-3.582031-8-8-8h-24c-17.125.0234375-32.941406 9.167969-41.503906 24h-214.496094c-22.082031.027344-39.972656 17.917969-40 40v128c.027344 22.082031 17.917969 39.972656 40 40h8v32h-46.257812c-22.558594-.445312-41.226563 17.441406-41.742188 40v72c.261719 13.484375 11.386719 24.21875 24.871094 24h47.769531c3.953125 27.535156 27.542969 47.976562 55.359375 47.976562s51.40625-20.441406 55.359375-47.976562h121.28125c3.953125 27.535156 27.542969 47.976562 55.359375 47.976562s51.40625-20.441406 55.359375-47.976562h39.769531c13.484375.21875 24.609375-10.515625 24.871094-24v-56c.003906-1.648438-.507812-3.253906-1.457031-4.601562zm-142.542969-299.398438h16v64h-16c-17.671875 0-32-14.328125-32-32s14.328125-32 32-32zm128 336h-16v-16h16zm-280-200h40c63.136719.082031 115.445312 49.007812 119.734375 112h-159.734375zm-128 40v-128c0-13.253906 10.746094-24 24-24h208.71875c-.957031 5.289062-.957031 10.710938 0 16h-200.796875c-8.785156.042969-15.890625 7.160156-15.921875 15.945312v111.125c.007812 9.347657 7.582031 16.921876 16.929688 16.929688h44.671874c1.375 5.246094 1.375 10.753906 0 16h-53.601562c-13.253906 0-24-10.746094-24-24zm48 40h32c9.023438 0 14.625-9.191406 14.625-24s-5.601562-24-14.625-24h-19.710938c11.753907-17.589844 30.683594-29.085938 51.710938-31.40625v111.40625h-64zm-88 96h32v16h-32zm112 104c-22.089844 0-40-17.910156-40-40s17.910156-40 40-40 40 17.910156 40 40c-.027344 22.082031-17.917969 39.972656-40 40zm232 0c-22.089844 0-40-17.910156-40-40s17.910156-40 40-40 40 17.910156 40 40c-.027344 22.082031-17.917969 39.972656-40 40zm95.128906-48h-39.769531c-3.953125-27.535156-27.542969-47.976562-55.359375-47.976562s-51.40625 20.441406-55.359375 47.976562h-121.28125c-3.953125-27.535156-27.542969-47.976562-55.359375-47.976562s-51.40625 20.441406-55.359375 47.976562h-47.769531c-4.648438.21875-8.609375-3.351562-8.871094-8v-16h48v-48h-48v-8c.511719-13.722656 12.019531-24.449219 25.742188-24h354.328124c14.800782 0 48.625 19.464844 65.792969 40h-21.863281c-4.417969 0-8 3.582031-8 8v32c0 4.417969 3.582031 8 8 8h24v8c-.261719 4.648438-4.222656 8.21875-8.871094 8zm0 0" fill="#0818cc"/><path d="m224 296h-32c-4.417969 0-8 3.582031-8 8s3.582031 8 8 8h32c4.417969 0 8-3.582031 8-8s-3.582031-8-8-8zm0 0" fill="#0818cc"/><path d="m261.65625 178.34375c-3.125-3.121094-8.1875-3.121094-11.3125 0l-40 40c-2.078125 2.007812-2.914062 4.984375-2.179688 7.78125.730469 2.796875 2.914063 4.980469 5.710938 5.710938 2.796875.734374 5.773438-.101563 7.78125-2.179688l40-40c3.121094-3.125 3.121094-8.1875 0-11.3125zm0 0" fill="#0818cc"/><path d="m266.34375 210.34375-24 24c-2.078125 2.007812-2.914062 4.984375-2.179688 7.78125.730469 2.796875 2.914063 4.980469 5.710938 5.710938 2.796875.734374 5.773438-.101563 7.78125-2.179688l24-24c3.03125-3.140625 2.988281-8.128906-.097656-11.214844-3.085938-3.085937-8.074219-3.128906-11.214844-.097656zm0 0" fill="#0818cc"/></svg>
